<svg viewBox="0 0 200 200" xmlns="http://www.w3.org/2000/svg">
  <defs>
    <linearGradient id="logoGradient" x1="0%" y1="0%" x2="100%" y2="100%">
      <stop offset="0%" stop-color="#8B3FD9" />
      <stop offset="100%" stop-color="#2563EB" />
    </linearGradient>
  </defs>
  
  <!-- Linhas radiantes do V -->
  <line x1="100.00" y1="60.00" x2="100.00" y2="5.00" stroke="url(#logoGradient)" stroke-width="8" stroke-linecap="round" opacity="0.8" />
  <line x1="110.35" y1="61.36" x2="124.59" y2="8.24" stroke="url(#logoGradient)" stroke-width="8" stroke-linecap="round" opacity="0.8" />
  <line x1="120.00" y1="65.36" x2="147.50" y2="17.73" stroke="url(#logoGradient)" stroke-width="8" stroke-linecap="round" opacity="0.8" />
  <line x1="128.28" y1="71.72" x2="167.18" y2="32.82" stroke="url(#logoGradient)" stroke-width="8" stroke-linecap="round" opacity="0.8" />
  <line x1="134.64" y1="80.00" x2="182.27" y2="52.50" stroke="url(#logoGradient)" stroke-width="8" stroke-linecap="round" opacity="0.8" />
  <line x1="138.64" y1="89.65" x2="191.76" y2="75.41" stroke="url(#logoGradient)" stroke-width="8" stroke-linecap="round" opacity="0.8" />
  <line x1="140.00" y1="100.00" x2="195.00" y2="100.00" stroke="url(#logoGradient)" stroke-width="8" stroke-linecap="round" opacity="0.8" />
  <line x1="138.64" y1="110.35" x2="191.76" y2="124.59" stroke="url(#logoGradient)" stroke-width="8" stroke-linecap="round" opacity="0.8" />
  <line x1="134.64" y1="120.00" x2="182.27" y2="147.50" stroke="url(#logoGradient)" stroke-width="8" stroke-linecap="round" opacity="0.8" />
  <line x1="128.28" y1="128.28" x2="167.18" y2="167.18" stroke="url(#logoGradient)" stroke-width="8" stroke-linecap="round" opacity="0.8" />
  <line x1="120.00" y1="134.64" x2="147.50" y2="182.27" stroke="url(#logoGradient)" stroke-width="8" stroke-linecap="round" opacity="0.8" />
  <line x1="110.35" y1="138.64" x2="124.59" y2="191.76" stroke="url(#logoGradient)" stroke-width="8" stroke-linecap="round" opacity="0.8" />
  <line x1="100.00" y1="140.00" x2="100.00" y2="195.00" stroke="url(#logoGradient)" stroke-width="8" stroke-linecap="round" opacity="0.8" />
  <line x1="89.65" y1="138.64" x2="75.41" y2="191.76" stroke="url(#logoGradient)" stroke-width="8" stroke-linecap="round" opacity="0.8" />
  <line x1="80.00" y1="134.64" x2="52.50" y2="182.27" stroke="url(#logoGradient)" stroke-width="8" stroke-linecap="round" opacity="0.8" />
  <line x1="71.72" y1="128.28" x2="32.82" y2="167.18" stroke="url(#logoGradient)" stroke-width="8" stroke-linecap="round" opacity="0.8" />
  <line x1="65.36" y1="120.00" x2="17.73" y2="147.50" stroke="url(#logoGradient)" stroke-width="8" stroke-linecap="round" opacity="0.8" />
  <line x1="61.36" y1="110.35" x2="8.24" y2="124.59" stroke="url(#logoGradient)" stroke-width="8" stroke-linecap="round" opacity="0.8" />
  <line x1="60.00" y1="100.00" x2="5.00" y2="100.00" stroke="url(#logoGradient)" stroke-width="8" stroke-linecap="round" opacity="0.8" />
  <line x1="61.36" y1="89.65" x2="8.24" y2="75.41" stroke="url(#logoGradient)" stroke-width="8" stroke-linecap="round" opacity="0.8" />
  <line x1="65.36" y1="80.00" x2="17.73" y2="52.50" stroke="url(#logoGradient)" stroke-width="8" stroke-linecap="round" opacity="0.8" />
  <line x1="71.72" y1="71.72" x2="32.82" y2="32.82" stroke="url(#logoGradient)" stroke-width="8" stroke-linecap="round" opacity="0.8" />
  <line x1="80.00" y1="65.36" x2="52.50" y2="17.73" stroke="url(#logoGradient)" stroke-width="8" stroke-linecap="round" opacity="0.8" />
  <line x1="89.65" y1="61.36" x2="75.41" y2="8.24" stroke="url(#logoGradient)" stroke-width="8" stroke-linecap="round" opacity="0.8" />
</svg>
